<?xml version="1.0" encoding="UTF-8" standalone="no"?><!DOCTYPE svg PUBLIC "-//W3C//DTD SVG 1.1//EN" "http://www.w3.org/Graphics/SVG/1.1/DTD/svg11.dtd"><svg width="100%" height="100%" viewBox="0 0 1000 750" version="1.1" xmlns="http://www.w3.org/2000/svg" xmlns:xlink="http://www.w3.org/1999/xlink" xml:space="preserve" xmlns:serif="http://www.serif.com/" style="fill-rule:evenodd;clip-rule:evenodd;stroke-linejoin:round;stroke-miterlimit:2;"><rect x="0" y="0" width="1000" height="750" style="fill:#fff;"/><g><path d="M576.8,170.2l-153.6,0c-14.16,0 -25.6,11.44 -25.6,25.6c0,14.16 11.44,25.6 25.6,25.6l0,106.24c0,9.44 -2.64,18.8 -7.6,26.8l-86.56,140.72c-5.36,8.8 -8.24,18.8 -8.24,29.12c0,30.64 24.88,55.52 55.52,55.52l247.36,0c30.64,0 55.52,-24.88 55.52,-55.52c0,-10.24 -2.88,-20.32 -8.24,-29.12l-86.56,-140.64c-4.96,-8.08 -7.6,-17.36 -7.6,-26.8l0,-106.32c14.16,0 25.6,-11.44 25.6,-25.6c0,-14.16 -11.44,-25.6 -25.6,-25.6Zm-102.4,157.44l0,-106.24l51.2,0l0,106.24c0,18.96 5.28,37.52 15.2,53.68l27.6,44.88l-136.8,0l27.6,-44.88c9.92,-16.16 15.2,-34.72 15.2,-53.68Z" style="fill:#f0f0f0;fill-rule:nonzero;"/></g><g><g><path d="M138.647,362.957c0,-6.747 0.94,-12.812 2.819,-18.193c1.879,-5.381 4.505,-9.95 7.879,-13.708c3.374,-3.758 7.345,-6.641 11.915,-8.648c4.569,-2.007 9.545,-3.011 14.926,-3.011c5.039,0 9.502,1.046 13.388,3.139c3.886,2.093 7.068,4.505 9.545,7.239l-6.021,6.79c-2.221,-2.392 -4.698,-4.292 -7.431,-5.701c-2.733,-1.409 -5.851,-2.114 -9.353,-2.114c-4.014,0 -7.666,0.79 -10.954,2.37c-3.288,1.58 -6.086,3.844 -8.392,6.79c-2.306,2.947 -4.1,6.513 -5.381,10.698c-1.281,4.185 -1.922,8.883 -1.922,14.093c0,5.295 0.619,10.057 1.858,14.285c1.238,4.228 2.989,7.836 5.253,10.826c2.263,2.989 4.997,5.295 8.199,6.918c3.203,1.623 6.812,2.434 10.826,2.434c4.014,0 7.538,-0.811 10.57,-2.434c3.032,-1.623 5.915,-3.929 8.648,-6.918l6.021,6.534c-3.246,3.844 -6.961,6.833 -11.146,8.968c-4.185,2.135 -8.968,3.203 -14.349,3.203c-5.295,0 -10.185,-0.982 -14.669,-2.947c-4.484,-1.964 -8.37,-4.804 -11.659,-8.52c-3.288,-3.715 -5.872,-8.285 -7.751,-13.708c-1.879,-5.424 -2.819,-11.552 -2.819,-18.385Z" style="fill-rule:nonzero;"/><path d="M210.777,373.975c0,-5.21 0.79,-9.844 2.37,-13.901c1.58,-4.057 3.694,-7.495 6.342,-10.313c2.648,-2.819 5.701,-4.954 9.16,-6.406c3.459,-1.452 7.11,-2.178 10.954,-2.178c3.844,0 7.495,0.726 10.954,2.178c3.459,1.452 6.513,3.587 9.16,6.406c2.648,2.819 4.762,6.256 6.342,10.313c1.58,4.057 2.37,8.691 2.37,13.901c0,5.125 -0.79,9.716 -2.37,13.773c-1.58,4.057 -3.694,7.473 -6.342,10.249c-2.648,2.776 -5.701,4.89 -9.16,6.342c-3.459,1.452 -7.11,2.178 -10.954,2.178c-3.844,0 -7.495,-0.726 -10.954,-2.178c-3.459,-1.452 -6.513,-3.566 -9.16,-6.342c-2.648,-2.776 -4.762,-6.192 -6.342,-10.249c-1.58,-4.057 -2.37,-8.648 -2.37,-13.773Zm10.89,0c0,3.587 0.427,6.833 1.281,9.737c0.854,2.904 2.071,5.402 3.651,7.495c1.58,2.093 3.481,3.715 5.701,4.868c2.221,1.153 4.655,1.73 7.303,1.73c2.648,0 5.082,-0.577 7.303,-1.73c2.221,-1.153 4.121,-2.776 5.701,-4.868c1.58,-2.093 2.797,-4.591 3.651,-7.495c0.854,-2.904 1.281,-6.15 1.281,-9.737c0,-3.587 -0.427,-6.854 -1.281,-9.801c-0.854,-2.947 -2.071,-5.488 -3.651,-7.623c-1.58,-2.135 -3.481,-3.779 -5.701,-4.932c-2.221,-1.153 -4.655,-1.73 -7.303,-1.73c-2.648,0 -5.082,0.577 -7.303,1.73c-2.221,1.153 -4.121,2.797 -5.701,4.932c-1.58,2.135 -2.797,4.676 -3.651,7.623c-0.854,2.947 -1.281,6.214 -1.281,9.801Z" style="fill-rule:nonzero;"/><path d="M284.828,342.715l8.712,0l0.897,8.968l0.384,0c2.733,-2.989 5.701,-5.488 8.904,-7.495c3.203,-2.007 6.683,-3.011 10.442,-3.011c4.783,0 8.52,1.046 11.21,3.139c2.69,2.093 4.676,5.018 5.957,8.776c3.246,-3.587 6.513,-6.47 9.801,-8.648c3.288,-2.178 6.854,-3.267 10.698,-3.267c6.406,0 11.168,2.05 14.285,6.15c3.118,4.1 4.676,10.164 4.676,18.193l0,39.46l-10.506,0l0,-38.051c-0,-5.893 -0.94,-10.143 -2.819,-12.748c-1.879,-2.605 -4.783,-3.908 -8.712,-3.908c-4.698,0 -9.908,3.203 -15.63,9.609l0,45.097l-10.506,0l0,-38.051c0,-5.893 -0.94,-10.143 -2.819,-12.748c-1.879,-2.605 -4.826,-3.908 -8.84,-3.908c-4.698,0 -9.908,3.203 -15.63,9.609l0,45.097l-10.506,0l0,-62.265Z" style="fill-rule:nonzero;"/><path d="M396.418,329.903c-2.05,0 -3.779,-0.641 -5.189,-1.922c-1.409,-1.281 -2.114,-2.904 -2.114,-4.868c0,-2.05 0.705,-3.694 2.114,-4.932c1.409,-1.238 3.139,-1.858 5.189,-1.858c2.05,0 3.779,0.619 5.189,1.858c1.409,1.238 2.114,2.883 2.114,4.932c0,1.964 -0.705,3.587 -2.114,4.868c-1.409,1.281 -3.139,1.922 -5.189,1.922Zm-5.381,12.812l10.506,0l0,62.265l-10.506,0l0,-62.265Z" style="fill-rule:nonzero;"/><path d="M422.554,342.715l8.712,0l0.897,8.968l0.384,0c2.989,-2.989 6.128,-5.488 9.417,-7.495c3.288,-2.007 7.11,-3.011 11.466,-3.011c6.577,0 11.381,2.05 14.413,6.15c3.032,4.1 4.548,10.164 4.548,18.193l0,39.46l-10.506,0l0,-38.051c0,-5.893 -0.94,-10.143 -2.819,-12.748c-1.879,-2.605 -4.868,-3.908 -8.968,-3.908c-3.246,0 -6.107,0.811 -8.584,2.434c-2.477,1.623 -5.295,4.014 -8.456,7.175l0,45.097l-10.506,0l0,-62.265Z" style="fill-rule:nonzero;"/><path d="M497.118,415.485c0,3.331 1.601,5.979 4.804,7.943c3.203,1.964 7.623,2.947 13.26,2.947c2.989,0 5.701,-0.363 8.135,-1.089c2.434,-0.726 4.505,-1.666 6.214,-2.819c1.708,-1.153 3.032,-2.498 3.972,-4.036c0.94,-1.537 1.409,-3.118 1.409,-4.74c0,-2.904 -1.068,-4.911 -3.203,-6.021c-2.135,-1.11 -5.253,-1.666 -9.353,-1.666l-10.762,0c-1.196,0 -2.498,-0.064 -3.908,-0.192c-1.409,-0.128 -2.797,-0.406 -4.164,-0.833c-2.221,1.623 -3.844,3.331 -4.868,5.125c-1.025,1.794 -1.537,3.587 -1.537,5.381Zm-9.224,1.409c0,-2.648 0.811,-5.167 2.434,-7.559c1.623,-2.392 3.844,-4.569 6.662,-6.534l0,-0.512c-1.537,-0.94 -2.84,-2.242 -3.908,-3.908c-1.068,-1.666 -1.601,-3.737 -1.601,-6.214c0,-2.648 0.726,-4.954 2.178,-6.918c1.452,-1.964 2.989,-3.502 4.612,-4.612l0,-0.512c-2.05,-1.708 -3.908,-3.993 -5.573,-6.854c-1.666,-2.861 -2.498,-6.171 -2.498,-9.929c0,-3.416 0.619,-6.491 1.858,-9.224c1.238,-2.733 2.925,-5.061 5.061,-6.982c2.135,-1.922 4.634,-3.395 7.495,-4.42c2.861,-1.025 5.872,-1.537 9.032,-1.537c1.708,0 3.31,0.149 4.804,0.448c1.495,0.299 2.84,0.662 4.036,1.089l21.652,0l0,8.071l-12.812,0c1.452,1.452 2.669,3.288 3.651,5.509c0.982,2.221 1.473,4.655 1.473,7.303c0,3.331 -0.598,6.342 -1.794,9.032c-1.196,2.69 -2.819,4.954 -4.868,6.79c-2.05,1.836 -4.463,3.267 -7.239,4.292c-2.776,1.025 -5.744,1.537 -8.904,1.537c-1.537,0 -3.118,-0.192 -4.74,-0.577c-1.623,-0.384 -3.16,-0.918 -4.612,-1.601c-1.11,0.94 -2.05,1.986 -2.819,3.139c-0.769,1.153 -1.153,2.584 -1.153,4.292c0,1.964 0.769,3.587 2.306,4.868c1.537,1.281 4.441,1.922 8.712,1.922l12.043,0c7.26,0 12.705,1.174 16.335,3.523c3.63,2.349 5.445,6.128 5.445,11.338c0,2.904 -0.726,5.658 -2.178,8.264c-1.452,2.605 -3.545,4.89 -6.278,6.854c-2.733,1.964 -6.043,3.523 -9.929,4.676c-3.886,1.153 -8.264,1.73 -13.132,1.73c-3.844,0 -7.345,-0.363 -10.506,-1.089c-3.16,-0.726 -5.872,-1.815 -8.135,-3.267c-2.263,-1.452 -4.014,-3.203 -5.253,-5.253c-1.238,-2.05 -1.858,-4.441 -1.858,-7.175Zm25.751,-38.691c1.794,0 3.481,-0.342 5.061,-1.025c1.58,-0.683 2.989,-1.666 4.228,-2.947c1.238,-1.281 2.199,-2.84 2.883,-4.676c0.683,-1.836 1.025,-3.908 1.025,-6.214c0,-4.612 -1.281,-8.178 -3.844,-10.698c-2.562,-2.52 -5.68,-3.779 -9.353,-3.779c-3.673,0 -6.79,1.26 -9.353,3.779c-2.562,2.52 -3.844,6.086 -3.844,10.698c0,2.306 0.342,4.377 1.025,6.214c0.683,1.836 1.644,3.395 2.883,4.676c1.238,1.281 2.648,2.263 4.228,2.947c1.58,0.683 3.267,1.025 5.061,1.025Z" style="fill-rule:nonzero;"/><path d="M581.418,390.886c2.733,2.221 5.53,4.014 8.392,5.381c2.861,1.367 6.171,2.05 9.929,2.05c4.1,0 7.175,-0.94 9.224,-2.819c2.05,-1.879 3.075,-4.185 3.075,-6.918c0,-1.623 -0.427,-3.032 -1.281,-4.228c-0.854,-1.196 -1.943,-2.242 -3.267,-3.139c-1.324,-0.897 -2.84,-1.687 -4.548,-2.37c-1.708,-0.683 -3.416,-1.367 -5.125,-2.05c-2.221,-0.769 -4.441,-1.644 -6.662,-2.626c-2.221,-0.982 -4.207,-2.178 -5.957,-3.587c-1.751,-1.409 -3.182,-3.053 -4.292,-4.932c-1.11,-1.879 -1.666,-4.142 -1.666,-6.79c0,-2.477 0.491,-4.804 1.473,-6.982c0.982,-2.178 2.392,-4.057 4.228,-5.637c1.836,-1.58 4.078,-2.819 6.726,-3.715c2.648,-0.897 5.637,-1.345 8.968,-1.345c3.929,0 7.538,0.683 10.826,2.05c3.288,1.367 6.128,3.032 8.52,4.997l-4.997,6.662c-2.135,-1.623 -4.356,-2.947 -6.662,-3.972c-2.306,-1.025 -4.826,-1.537 -7.559,-1.537c-3.929,0 -6.812,0.897 -8.648,2.69c-1.836,1.794 -2.755,3.886 -2.755,6.278c0,1.452 0.384,2.69 1.153,3.715c0.769,1.025 1.794,1.964 3.075,2.819c1.281,0.854 2.755,1.601 4.42,2.242c1.666,0.641 3.395,1.303 5.189,1.986c2.221,0.854 4.463,1.751 6.726,2.69c2.263,0.94 4.292,2.114 6.086,3.523c1.794,1.409 3.267,3.139 4.42,5.189c1.153,2.05 1.73,4.527 1.73,7.431c0,2.562 -0.491,4.954 -1.473,7.175c-0.982,2.221 -2.434,4.185 -4.356,5.893c-1.922,1.708 -4.313,3.053 -7.175,4.036c-2.861,0.982 -6.128,1.473 -9.801,1.473c-4.441,0 -8.669,-0.811 -12.684,-2.434c-4.014,-1.623 -7.516,-3.673 -10.506,-6.15l5.253,-7.046Z" style="fill-rule:nonzero;"/><path d="M632.153,373.975c0,-5.21 0.79,-9.844 2.37,-13.901c1.58,-4.057 3.694,-7.495 6.342,-10.313c2.648,-2.819 5.701,-4.954 9.16,-6.406c3.459,-1.452 7.11,-2.178 10.954,-2.178c3.844,0 7.495,0.726 10.954,2.178c3.459,1.452 6.513,3.587 9.16,6.406c2.648,2.819 4.762,6.256 6.342,10.313c1.58,4.057 2.37,8.691 2.37,13.901c0,5.125 -0.79,9.716 -2.37,13.773c-1.58,4.057 -3.694,7.473 -6.342,10.249c-2.648,2.776 -5.701,4.89 -9.16,6.342c-3.459,1.452 -7.11,2.178 -10.954,2.178c-3.844,0 -7.495,-0.726 -10.954,-2.178c-3.459,-1.452 -6.513,-3.566 -9.16,-6.342c-2.648,-2.776 -4.762,-6.192 -6.342,-10.249c-1.58,-4.057 -2.37,-8.648 -2.37,-13.773Zm10.89,0c0,3.587 0.427,6.833 1.281,9.737c0.854,2.904 2.071,5.402 3.651,7.495c1.58,2.093 3.481,3.715 5.701,4.868c2.221,1.153 4.655,1.73 7.303,1.73c2.648,0 5.082,-0.577 7.303,-1.73c2.221,-1.153 4.121,-2.776 5.701,-4.868c1.58,-2.093 2.797,-4.591 3.651,-7.495c0.854,-2.904 1.281,-6.15 1.281,-9.737c0,-3.587 -0.427,-6.854 -1.281,-9.801c-0.854,-2.947 -2.071,-5.488 -3.651,-7.623c-1.58,-2.135 -3.481,-3.779 -5.701,-4.932c-2.221,-1.153 -4.655,-1.73 -7.303,-1.73c-2.648,0 -5.082,0.577 -7.303,1.73c-2.221,1.153 -4.121,2.797 -5.701,4.932c-1.58,2.135 -2.797,4.676 -3.651,7.623c-0.854,2.947 -1.281,6.214 -1.281,9.801Z" style="fill-rule:nonzero;"/><path d="M701.592,373.975c0,-5.21 0.79,-9.844 2.37,-13.901c1.58,-4.057 3.694,-7.495 6.342,-10.313c2.648,-2.819 5.701,-4.954 9.16,-6.406c3.459,-1.452 7.11,-2.178 10.954,-2.178c3.844,0 7.495,0.726 10.954,2.178c3.459,1.452 6.513,3.587 9.16,6.406c2.648,2.819 4.762,6.256 6.342,10.313c1.58,4.057 2.37,8.691 2.37,13.901c0,5.125 -0.79,9.716 -2.37,13.773c-1.58,4.057 -3.694,7.473 -6.342,10.249c-2.648,2.776 -5.701,4.89 -9.16,6.342c-3.459,1.452 -7.11,2.178 -10.954,2.178c-3.844,0 -7.495,-0.726 -10.954,-2.178c-3.459,-1.452 -6.513,-3.566 -9.16,-6.342c-2.648,-2.776 -4.762,-6.192 -6.342,-10.249c-1.58,-4.057 -2.37,-8.648 -2.37,-13.773Zm10.89,0c0,3.587 0.427,6.833 1.281,9.737c0.854,2.904 2.071,5.402 3.651,7.495c1.58,2.093 3.481,3.715 5.701,4.868c2.221,1.153 4.655,1.73 7.303,1.73c2.648,0 5.082,-0.577 7.303,-1.73c2.221,-1.153 4.121,-2.776 5.701,-4.868c1.58,-2.093 2.797,-4.591 3.651,-7.495c0.854,-2.904 1.281,-6.15 1.281,-9.737c0,-3.587 -0.427,-6.854 -1.281,-9.801c-0.854,-2.947 -2.071,-5.488 -3.651,-7.623c-1.58,-2.135 -3.481,-3.779 -5.701,-4.932c-2.221,-1.153 -4.655,-1.73 -7.303,-1.73c-2.648,0 -5.082,0.577 -7.303,1.73c-2.221,1.153 -4.121,2.797 -5.701,4.932c-1.58,2.135 -2.797,4.676 -3.651,7.623c-0.854,2.947 -1.281,6.214 -1.281,9.801Z" style="fill-rule:nonzero;"/><path d="M775.643,342.715l8.712,0l0.897,8.968l0.384,0c2.989,-2.989 6.128,-5.488 9.417,-7.495c3.288,-2.007 7.11,-3.011 11.466,-3.011c6.577,0 11.381,2.05 14.413,6.15c3.032,4.1 4.548,10.164 4.548,18.193l0,39.46l-10.506,0l0,-38.051c0,-5.893 -0.94,-10.143 -2.819,-12.748c-1.879,-2.605 -4.868,-3.908 -8.968,-3.908c-3.246,0 -6.107,0.811 -8.584,2.434c-2.477,1.623 -5.295,4.014 -8.456,7.175l0,45.097l-10.506,0l0,-62.265Z" style="fill-rule:nonzero;"/><path d="M848.67,331.184l-0.256,-12.043l10.634,0l-0.256,12.043l-1.409,48.428l-7.303,0l-1.409,-48.428Zm-2.562,67.389c0,-2.477 0.747,-4.463 2.242,-5.957c1.495,-1.495 3.31,-2.242 5.445,-2.242c2.05,0 3.822,0.747 5.317,2.242c1.495,1.495 2.242,3.481 2.242,5.957c0,2.306 -0.747,4.207 -2.242,5.701c-1.495,1.495 -3.267,2.242 -5.317,2.242c-2.135,0 -3.95,-0.747 -5.445,-2.242c-1.495,-1.495 -2.242,-3.395 -2.242,-5.701Z" style="fill-rule:nonzero;"/></g></g></svg>